<?xml version="1.0" encoding="UTF-8"?>
<svg id="Layer_1" xmlns="http://www.w3.org/2000/svg" version="1.1" viewBox="0 0 90.7 88.1">
  <!-- Generator: Adobe Illustrator 29.5.1, SVG Export Plug-In . SVG Version: 2.1.0 Build 141)  -->
  <defs>
    <style>
      .st0 {
        fill: #231f20;
        stroke: #fff;
        stroke-miterlimit: 10;
      }

      .st1 {
        fill: #fff085;
      }

      .st2 {
        fill: #fccee8;
      }

      .st3 {
        fill: #bedbff;
      }
    </style>
  </defs>
  <rect class="st2" x="4.6" y="14" width="46.5" height="46.5" transform="translate(-7.6 7.2) rotate(-12.9)"/>
  <rect class="st3" x="39.5" y="16" width="46.5" height="46.5" transform="translate(-7.2 15) rotate(-12.9)"/>
  <rect class="st1" x="25.9" y="35.8" width="46.5" height="46.5" transform="translate(-12 12.5) rotate(-12.9)"/>
  <g>
    <path class="st0" d="M12.6,62.8l-.5.4v1.4h-1l-.9,1.4-1.1-.9-.9.5-1.4-.5-.4.5v.9h-.5l-1.9-1.4v-.5l-.3-.4v-1.9l-.5-.3.9-1.4,1.5-1.1.4-1.8.5-.5,1.3-.4,1.1.4v.5l.3.4h1.1l.4-.4,1.4,1.4v1.5l.5.9v1.4Z"/>
    <path class="st0" d="M47.2,58.5c0,.6-.2,1.5-.7,2.7l-.7.4-.4.7h-.4l-.7.9-1.6.3c-.1.2-.3.6-.7,1.1-.4.5-.6.8-.7,1.1l-1.3,1-1.6.4-.3.4-1.6.3-.4.4-2-.7c-1.6.1-3.2-.1-4.7-.9v-.3c-.3-.4-.5-.7-.7-.9l-.7-.3c-.6-1.1-1-2.3-1-3.4l.5-1.3c.6-.4,1.5-1.8,2.9-4.4.9-1.6,1.8-3.3,2.7-5,0-.9.7-2.8,1.8-5.9v-.7l.4-.4v-.4h.5l.9-1.7v-1.7c-.1,0-.5-.4-.5-.4-1,.1-1.9.5-2.7,1.2v.4c-1.4.4-2.4.8-3.1,1.1l-.9.9c-.7.1-1.5.4-2.2.7h-.9c0-.1-.7-.7-.7-.7l-.2-.9.2-1.1c1.2-1,2.3-1.6,3.1-1.7,1.1-.2,2.3-.4,3.4-.6.5-.2,1.1-.5,2-1,2.1-.9,4.7-1.4,7.8-1.4s.3,0,.8.2c.5.1.7.2.8.2.6.6,1.1,1.4,1.5,2.3h.4c.3.5.4,1.4.4,2.9s-.1.7-.3,1.8c-.2.2-.8.8-1.7,1.9l-1.2.4-.3,1.2h-.4l-.7.7c.1,1,0,2.2-.4,3.5h-.3c-.1.9-.4,1.7-.8,2.3l-1.2,1.1c-.9,2.7-1.2,4.2-1.2,4.4h-.3c0,.6-.2,1.6-.5,2.8v1.3c1.2,0,2.6-.6,4.5-1.7,1.9-1.1,3-2.1,3.4-3.1l1.3-.7h1c0-.1.9.3.9.3ZM52.4,17.7l-.7.6c-.2,1.6-.7,2.6-1.6,3.2v1.1l-.9,1-.4,1.5-1.4.3c-.1,1.1-.5,2-1.1,2.7-.8.5-1.5,1.1-2.1,1.8l-1.4.4-1-2.2c0-.8.1-2,.1-3.5,1-1.6,1.2-3.2.7-4.9.5-1.2,1.1-2.3,1.9-3.2l1.9-.7.4-.4c.6-.3,1.2-.4,1.8-.4h1.7c.8.4,1.4.9,1.9,1.6v1.3Z"/>
    <path class="st0" d="M82.1,35.4l-.3,1.9-1.2.3c-.4,0-1.3-.3-2.7-.6-1.1-.3-2-.4-2.7-.4s-.7.1-2,.3l-.3.4h-2.2l-1.2,1.1c-.2.9-.6,2-1.3,3.2.1,1,0,2.2-.4,3.5l-.7.7.4,2-.7.3-.4.7.4.9-.9,1-.3,1.6h-.4c0,.1-.7,1.7-.7,1.7v.3l-1.6.9.4,1.2-.9.7-.3,1.2-1.2,1.6v.7l.3.3h.9v.9l-.4.3c.3.7.5,1.5.6,2.4l2.1-.4.9.5.6-.5.9.3c.7-.3,1.9-.7,3.4-1.2l1.2-1.2.9-2.2v-2c.6-1.5,1.2-2.6,1.9-3.4l-.9-.5.9-.7v-.4l1.2-.7h1.2c.8.2,1.2.3,1.2.3l1.1,2.3-.7,1.2v1.2c-.9,1.2-1.7,2-2.7,2.3v.4l-1.2,1.5c-.1,1.2-.6,2.2-1.4,3l-1.3.9-.9,1.2c-1.6.9-2.8,1.2-3.8,1.2l-.4.9h-.7l-.4-.4c-.7.2-1.3.4-1.6.7l-1.9.4v-.4c-1.7-.3-3-.4-3.9-.3-.3-.5-.9-1-1.9-1.5-1.1-.6-1.8-1.2-2.1-1.5v-2l-.3-.3v-1.6c.8-2.2,1.2-3.6,1.2-4.3l.6-.6c.4-.7.6-1.7.4-2.9l1.4-1.8c0-.3.2-1.7.7-4l1-1.1-.4-.9c.4-1.4,1-3.4,1.7-6.2h.7c.3-.4.6-1.3.8-2.8l-.5-.4-1.9.4c-.7.6-1.4,1-1.9,1.2l-1.2-.3c-1.5.7-2.9,1-4.3.7l.4-1.6c.9-.7,1.9-1.3,3.1-1.9h.7l.4-.7h1.2l1.5-.7,1,.2c1.4-.2,2.6-.6,3.7-1l.5-1.6h.7l1.6-1.9.3-1.2c.7-.4,1.2-.7,1.6-.9l.3-1.2,1.2.4.4-.4v-.7l1.6-.7v-.7l.7-1.2h.7l.4.3.7-.3v2.7l-.7.4v.3l-.4.4v1.2l-1.6,1.9c-.1,1.3-.6,2.6-1.4,3.7,1.4.1,2.8.3,4.2.6.6-.2,1.6-.3,3-.3s2.7.1,3.6.3l.7,1.6Z"/>
  </g>
</svg>